<?xml version="1.0" standalone="no"?>
<!DOCTYPE svg PUBLIC "-//W3C//DTD SVG 20010904//EN"
 "http://www.w3.org/TR/2001/REC-SVG-20010904/DTD/svg10.dtd">
<svg version="1.0" xmlns="http://www.w3.org/2000/svg"
 width="360.000000pt" height="360.000000pt" viewBox="0 0 360.000000 360.000000"
 preserveAspectRatio="xMidYMid meet">
<metadata>
Created by potrace 1.14, written by Peter Selinger 2001-2017
</metadata>
<g transform="translate(0.000000,360.000000) scale(0.100000,-0.100000)"
fill="#000000" stroke="none">
<path d="M5 3231 c-3 -2 -5 -647 -5 -1433 l0 -1428 1234 0 1234 0 4 22 c7 43
1 2828 -6 2836 -8 7 -2454 11 -2461 3z m2183 -270 c10 -1 12 -236 10 -1158
l-3 -1158 -960 0 -960 0 -3 1140 c-1 627 0 1149 2 1160 5 20 13 20 953 19 521
-1 954 -2 961 -3z"/>
<path d="M910 2164 c-213 -45 -353 -207 -384 -444 -8 -55 -8 -282 -1 -330 22
-144 67 -243 145 -321 94 -95 215 -141 368 -141 151 0 273 45 370 138 l57 54
-85 80 c-47 44 -91 80 -97 80 -7 0 -25 -13 -39 -30 -46 -51 -118 -80 -197 -80
-80 0 -124 17 -173 68 -56 58 -76 142 -75 322 1 250 65 347 239 358 87 6 142
-12 193 -63 19 -19 39 -35 46 -35 19 0 173 142 173 161 0 20 -63 78 -127 119
-105 67 -275 93 -413 64z"/>
<path d="M2717 633 c-4 -3 -7 -64 -7 -134 0 -123 1 -127 23 -132 18 -3 836 -2
860 2 4 0 6 61 5 134 l-3 132 -436 3 c-239 1 -439 -1 -442 -5z"/>
</g>
</svg>
